<?xml version="1.0" encoding="UTF-8" ?>
<svg version="1.1" width="24" height="24" xmlns="http://www.w3.org/2000/svg" shape-rendering="crispEdges">
<rect x="6" y="3" width="7" height="1" fill="#0E0D0E" />
<rect x="5" y="4" width="2" height="1" fill="#0E0D0E" />
<rect x="7" y="4" width="5" height="1" fill="#D2202C" />
<rect x="12" y="4" width="2" height="1" fill="#0E0D0E" />
<rect x="5" y="5" width="1" height="2" fill="#0E0D0E" />
<rect x="6" y="5" width="1" height="1" fill="#D2202C" />
<rect x="7" y="5" width="2" height="2" fill="#0E0D0E" />
<rect x="9" y="5" width="4" height="1" fill="#D2202C" />
<rect x="13" y="5" width="1" height="2" fill="#0E0D0E" />
<rect x="6" y="6" width="1" height="1" fill="#0E0D0E" />
<rect x="9" y="6" width="1" height="1" fill="#0E0D0E" />
<rect x="10" y="6" width="2" height="1" fill="#D2202C" />
<rect x="12" y="6" width="1" height="1" fill="#0E0D0E" />
<rect x="14" y="6" width="3" height="1" fill="#0E0D0E" />
<rect x="7" y="7" width="1" height="8" fill="#0E0D0E" />
<rect x="8" y="7" width="3" height="1" fill="#EADFD1" />
<rect x="11" y="7" width="5" height="1" fill="#7C776F" />
<rect x="16" y="7" width="1" height="2" fill="#0E0D0E" />
<rect x="8" y="8" width="1" height="1" fill="#EADFD1" />
<rect x="9" y="8" width="7" height="1" fill="#0E0D0E" />
<rect x="17" y="8" width="1" height="7" fill="#0E0D0E" />
<rect x="8" y="9" width="1" height="5" fill="#7C776F" />
<rect x="9" y="9" width="1" height="6" fill="#0E0D0E" />
<rect x="10" y="9" width="3" height="1" fill="#EADFD1" />
<rect x="13" y="9" width="4" height="1" fill="#B3AAA1" />
<rect x="10" y="10" width="1" height="1" fill="#EADFD1" />
<rect x="11" y="10" width="1" height="3" fill="#0E0D0E" />
<rect x="12" y="10" width="1" height="4" fill="#B3AAA1" />
<rect x="13" y="10" width="1" height="3" fill="#0E0D0E" />
<rect x="14" y="10" width="1" height="4" fill="#B3AAA1" />
<rect x="15" y="10" width="1" height="3" fill="#0E0D0E" />
<rect x="16" y="10" width="1" height="4" fill="#B3AAA1" />
<rect x="10" y="11" width="1" height="3" fill="#B3AAA1" />
<rect x="11" y="13" width="1" height="1" fill="#B3AAA1" />
<rect x="13" y="13" width="1" height="1" fill="#B3AAA1" />
<rect x="15" y="13" width="1" height="1" fill="#B3AAA1" />
<rect x="6" y="14" width="1" height="8" fill="#0E0D0E" />
<rect x="8" y="14" width="1" height="1" fill="#0E0D0E" />
<rect x="10" y="14" width="7" height="1" fill="#0E0D0E" />
<rect x="7" y="15" width="3" height="5" fill="#0A7030" />
<rect x="10" y="15" width="6" height="1" fill="#EBA724" />
<rect x="16" y="15" width="1" height="6" fill="#0E0D0E" />
<rect x="10" y="16" width="1" height="5" fill="#EBA724" />
<rect x="11" y="16" width="5" height="1" fill="#0E0D0E" />
<rect x="11" y="17" width="1" height="5" fill="#0E0D0E" />
<rect x="12" y="17" width="4" height="2" fill="#7C776F" />
<rect x="12" y="19" width="2" height="2" fill="#0E0D0E" />
<rect x="14" y="19" width="2" height="1" fill="#B3AAA1" />
<rect x="7" y="20" width="3" height="1" fill="#EBA724" />
<rect x="14" y="20" width="1" height="1" fill="#B3AAA1" />
<rect x="15" y="20" width="1" height="2" fill="#0E0D0E" />
<rect x="7" y="21" width="4" height="1" fill="#0E0D0E" />
<rect x="13" y="21" width="2" height="1" fill="#0E0D0E" />
</svg>